# xmcd CD database file
#
# Track frame offsets:
#	150
#	13561
#	28305
#	41582
#	51778
#	65487
#	77613
#	89115
#	101004
#	112849
#	126193
#	141156
#	154075
#	165751
#	179293
#	192714
#	205509
#	218345
#	228041
#	242819
#
# Disc length: 3371 seconds
#
# Revision: 1
# Processed by: cddbd v1.5.2PL0 Copyright (c) Steve Scherf et al.
# Submitted via: jetAudio 7
#
DISCID=060d2914
DTITLE=Jerry Reed - Hot A' Mighty and Lord Mr. Ford
DYEAR=2000
DGENRE=Country
TTITLE0=Goodnight, Irene
TTITLE1=The Promised Land - Johnny B. Goode - School Days (Ring, Ring! Go
TTITLE1=es The Bell) - Maybelline - Memphis, Tennessee
TTITLE2=Sweet Memories
TTITLE3=You Took All The Ramblin' Out Of Me
TTITLE4=Back Home In Georgia
TTITLE5=I'm Not Playing Games
TTITLE6=Nashville Woman
TTITLE7=Sixteen Tons
TTITLE8=Caribbean
TTITLE9=I Just Don't Understand
TTITLE10=Lord, Mr. Ford
TTITLE11=Folsom Prison Blues
TTITLE12=Rainbow Ride
TTITLE13=Two-Timin'
TTITLE14=That Lucky Old Sun (Just Rolled Around Heaven All Day)
TTITLE15=You Can't Keep Me Here In Tennessee
TTITLE16=The Lady Is A Woman
TTITLE17=Pickie, Pickie, Pickie
TTITLE18=One Sweet Reason
TTITLE19=I'm Gonna Write A Song
EXTD=
EXTT0=
EXTT1=
EXTT2=
EXTT3=
EXTT4=
EXTT5=
EXTT6=
EXTT7=
EXTT8=
EXTT9=
EXTT10=
EXTT11=
EXTT12=
EXTT13=
EXTT14=
EXTT15=
EXTT16=
EXTT17=
EXTT18=
EXTT19=
PLAYORDER=
